<svg xmlns="http://www.w3.org/2000/svg" width="1005" height="600">
<rect width="1005" height="600" x="0" y="0" fill="#FFFFFF" id="background" data-darkreader-inline-fill="" style="--darkreader-inline-fill: var(--darkreader-background-ffffff, #181a1b);"/>
<g id="viz">
<g transform="translate(60,0)">
<g transform="translate(10,20)">
<g>
<path fill="#5e4fa2" d="M0,476.78806000000003C35.539418383229226,472.6346703011566,71.07883676645845,468.4812806023131,96.91358024691357,461.79518C122.74832372736869,455.1090793976869,138.87839230504977,445.8902678919042,193.82716049382714,441.66388C248.7759286826045,437.4374921080958,342.54339648247816,438.20352783006985,397.3456790123457,433.42488000000003C452.1479615422133,428.6462321699302,467.9850588020747,418.32290078781637,494.2592592592593,410.95684C520.5334597164439,403.59077921218363,557.2447633709515,399.1819890186648,591.1728395061729,392.63126C625.1009156413942,386.0805309813352,656.2457642573295,377.38786313752433,688.0864197530864,373.52223999999995C719.9270752488433,369.6566168624756,752.4635376244216,370.6180384312378,785,371.57946L785,407.59166C752.4635376244216,406.83680205885724,719.9270752488434,406.08194411771444,688.0864197530864,409.13922C656.2457642573294,412.1964958822856,625.1009156413942,419.06590558799957,591.1728395061729,424.3141C557.2447633709515,429.5622944120004,520.533459716444,433.1892735302874,494.2592592592593,439.03650000000005C467.9850588020746,444.8837264697127,452.14796154221324,452.95120029085086,397.3456790123457,456.9656C342.5433964824782,460.9799997091491,248.7759286826045,460.94132530630935,193.82716049382714,464.62948C138.87839230504977,468.31763469369065,122.7483237273687,475.7326184839116,96.91358024691357,481.29578C71.07883676645844,486.85894151608835,35.53941838322922,490.5702807580442,0,494.28162Z" data-darkreader-inline-fill="" style="--darkreader-inline-fill: var(--darkreader-background-5e4fa2, #4b3f82);">
<title>Aveiro</title>
</path>
<path fill="#428bb5" d="M0,294.93422C35.539418383229226,279.34116832016485,71.07883676645845,263.74811664032984,96.91358024691357,239.18916C122.74832372736869,214.63020335967016,138.87839230504977,181.10534175884573,193.82716049382714,187.02571999999998C248.7759286826045,192.94609824115423,342.54339648247816,238.3117163242872,397.3456790123457,244.26318000000003C452.1479615422133,250.21464367571286,467.9850588020747,216.75195294400555,494.2592592592593,197.59838000000002C520.5334597164439,178.4448070559945,557.2447633709515,173.60035189969082,591.1728395061729,158.94886000000002C625.1009156413942,144.29736810030923,656.2457642573295,119.83883945723122,688.0864197530864,109.23808000000001C719.9270752488433,98.6373205427688,752.4635376244216,101.8943302713844,785,105.15134000000002L785,118.33135999999999C752.4635376244216,115.10543785411654,719.9270752488434,111.87951570823313,688.0864197530864,122.30708000000001C656.2457642573294,132.7346442917669,625.1009156413942,156.81569502118404,591.1728395061729,171.15742C557.2447633709515,185.49914497881596,520.533459716444,190.10154420703074,494.2592592592593,208.78507999999997C467.9850588020746,227.4686157929692,452.14796154221324,260.2332881506927,397.3456790123457,254.87308C342.5433964824782,249.51287184930726,248.7759286826045,206.02778319019808,193.82716049382714,200.59214C138.87839230504977,195.15649680980192,122.7483237273687,227.77029908851483,96.91358024691357,251.62899999999996C71.07883676645844,275.4877009114851,35.53941838322922,290.59130045574256,0,305.6949Z" data-darkreader-inline-fill="" style="--darkreader-inline-fill: var(--darkreader-background-428bb5, #356f91);">
<title>Beja</title>
</path>
<path fill="#52a9af" d="M0,494.28162C35.539418383229226,490.5702807580443,71.07883676645845,486.85894151608846,96.91358024691357,481.29578C122.74832372736869,475.7326184839115,138.87839230504977,468.3176346936906,193.82716049382714,464.62948C248.7759286826045,460.9413253063094,342.54339648247816,460.9799997091491,397.3456790123457,456.9656C452.1479615422133,452.95120029085086,467.9850588020747,444.88372646971266,494.2592592592593,439.03650000000005C520.5334597164439,433.18927353028744,557.2447633709515,429.56229441200037,591.1728395061729,424.3141C625.1009156413942,419.0659055879996,656.2457642573295,412.1964958822856,688.0864197530864,409.13922C719.9270752488433,406.08194411771444,752.4635376244216,406.8368020588572,785,407.59166L785,446.62464C752.4635376244216,445.73695351196614,719.9270752488434,444.8492670239322,688.0864197530864,446.72389999999996C656.2457642573294,448.5985329760677,625.1009156413942,453.23548541623717,591.1728395061729,456.7955C557.2447633709515,460.35551458376284,520.533459716444,462.8385913111189,494.2592592592593,466.97518C467.9850588020746,471.11176868888117,452.14796154221324,476.90186933928777,397.3456790123457,479.86287999999996C342.5433964824782,482.82389066071215,248.7759286826045,482.95581133173016,193.82716049382714,486.09652C138.87839230504977,489.23722866826984,122.7483237273687,495.3867253337914,96.91358024691357,499.89730000000003C71.07883676645844,504.40787466620867,35.53941838322922,507.27952733310434,0,510.15118Z" data-darkreader-inline-fill="" style="--darkreader-inline-fill: var(--darkreader-background-52a9af, #40868b);">
<title>Braga</title>
</path>
<path fill="#6fc1a8" d="M0,284.56777999999997C35.539418383229226,268.2027767204854,71.07883676645845,251.83777344097098,96.91358024691357,226.04736C122.74832372736869,200.25694655902902,138.87839230504977,165.04112295660144,193.82716049382714,171.96620000000001C248.7759286826045,178.8912770433986,342.54339648247816,227.9572547326233,397.3456790123457,235.0068C452.1479615422133,242.05634526737668,467.9850588020747,207.0894581129051,494.2592592592593,187.13128C520.5334597164439,167.1731018870949,557.2447633709515,162.2236328157563,591.1728395061729,147.45947999999999C625.1009156413942,132.69532718424367,656.2457642573295,108.1164906240696,688.0864197530864,97.43257999999999C719.9270752488433,86.74866937593038,752.4635376244216,89.9596846879652,785,93.1707L785,105.15134000000002C752.4635376244216,101.89433027138443,719.9270752488434,98.63732054276883,688.0864197530864,109.23808000000001C656.2457642573294,119.83883945723119,625.1009156413942,144.2973681003092,591.1728395061729,158.94886000000002C557.2447633709515,173.60035189969085,520.533459716444,178.44480705599452,494.2592592592593,197.59838000000002C467.9850588020746,216.75195294400552,452.14796154221324,250.21464367571286,397.3456790123457,244.26318000000003C342.5433964824782,238.3117163242872,248.7759286826045,192.94609824115417,193.82716049382714,187.02571999999998C138.87839230504977,181.10534175884578,122.7483237273687,214.63020335967025,96.91358024691357,239.18916C71.07883676645844,263.7481166403297,35.53941838322922,279.34116832016485,0,294.93422Z" data-darkreader-inline-fill="" style="--darkreader-inline-fill: var(--darkreader-background-6fc1a8, #357a6a);">
<title>Bragança</title>
</path>
<path fill="#91d3a4" d="M0,340.86892C35.539418383229226,327.1891180190084,71.07883676645845,313.5093160380168,96.91358024691357,293.01384C122.74832372736869,272.51836396198325,138.87839230504977,245.20721386694152,193.82716049382714,248.63496C248.7759286826045,252.0627061330585,342.54339648247816,286.2293484942173,397.3456790123457,289.34849999999994C452.1479615422133,292.4676515057826,467.9850588020747,264.5393121561891,494.2592592592593,248.18892000000002C520.5334597164439,231.8385278438109,557.2447633709515,227.06608288102603,591.1728395061729,213.83880000000002C625.1009156413942,200.611517118974,656.2457642573295,178.92939631970688,688.0864197530864,169.62428C719.9270752488433,160.31916368029312,752.4635376244216,163.39105184014653,785,166.46293999999997L785,182.80304C752.4635376244216,179.74463388984313,719.9270752488434,176.68622777968625,688.0864197530864,185.65008C656.2457642573294,194.61393222031376,625.1009156413942,215.60004277109812,591.1728395061729,228.74544C557.2447633709515,241.8908372289019,520.533459716444,247.19552113592124,494.2592592592593,262.69488C467.9850588020746,278.1942388640788,452.14796154221324,303.88827268521703,397.3456790123457,303.05898C342.5433964824782,302.229687314783,248.7759286826045,274.8770681232108,193.82716049382714,272.87778C138.87839230504977,270.87849187678916,122.7483237273687,294.23253482193974,96.91358024691357,312.52256C71.07883676645844,330.81258517806026,35.53941838322922,344.03859258903015,0,357.26460000000003Z" data-darkreader-inline-fill="" style="--darkreader-inline-fill: var(--darkreader-background-91d3a4, #296646);">
<title>Castelo Branco</title>
</path>
<path fill="#b3e0a1" d="M0,413.62286000000006C35.539418383229226,404.90402607122405,71.07883676645845,396.1851921424481,96.91358024691357,382.70203999999995C122.74832372736869,369.2188878575518,138.87839230504977,350.97141750143146,193.82716049382714,351.13890000000004C248.7759286826045,351.3063824985686,342.54339648247816,369.8888178518264,397.3456790123457,370.1635C452.1479615422133,370.4381821481736,467.9850588020747,352.40511109126305,494.2592592592593,341.23152000000005C520.5334597164439,330.05792890873704,557.2447633709515,325.74381778312153,591.1728395061729,316.79256C625.1009156413942,307.84130221687843,656.2457642573295,294.25289777625096,688.0864197530864,288.49436C719.9270752488433,282.735822223749,752.4635376244216,284.80715111187453,785,286.87848L785,313.23278C752.4635376244216,311.5831691537844,719.9270752488434,309.93355830756894,688.0864197530864,315.11269999999996C656.2457642573294,320.291841692431,625.1009156413942,332.2997359235085,591.1728395061729,340.49987999999996C557.2447633709515,348.70002407649145,520.533459716444,353.0924179983969,494.2592592592593,363.29215999999997C467.9850588020746,373.491902001603,452.14796154221324,389.49899208290384,397.3456790123457,390.39014000000003C342.5433964824782,391.2812879170962,248.7759286826045,377.05649366998756,193.82716049382714,377.85958000000005C138.87839230504977,378.66266633001254,122.7483237273687,394.49363323714647,96.91358024691357,406.13748C71.07883676645844,417.7813267628535,35.53941838322922,425.23805338142677,0,432.69478Z" data-darkreader-inline-fill="" style="--darkreader-inline-fill: var(--darkreader-background-b3e0a1, #3d5f1f);">
<title>Coimbra</title>
</path>
<path fill="#9e0142" d="M0,271.13982000000004C35.539418383229226,254.52981452421852,71.07883676645845,237.91980904843703,96.91358024691357,210.70210000000003C122.74832372736869,183.48439095156303,138.87839230504977,145.6589783304706,193.82716049382714,152.25573999999997C248.7759286826045,158.85250166952935,342.54339648247816,209.87143762968054,397.3456790123457,217.31346000000002C452.1479615422133,224.7554823703195,467.9850588020747,188.62059115080734,494.2592592592593,168.01512000000002C520.5334597164439,147.4096488491927,557.2447633709515,142.33359776709034,591.1728395061729,126.64189999999999C625.1009156413942,110.95020223290963,656.2457642573295,84.64285778083133,688.0864197530864,73.29392000000003C719.9270752488433,61.94498221916872,752.4635376244216,65.55445110958436,785,69.16392000000002L785,80.4349C752.4635376244216,76.90961081873354,719.9270752488434,73.38432163746707,688.0864197530864,84.55803999999999C656.2457642573294,95.73175836253291,625.1009156413942,121.60448426886524,591.1728395061729,136.98762000000002C557.2447633709515,152.3707557311348,520.533459716444,157.26430128707207,494.2592592592593,177.63242000000002C467.9850588020746,198.00053871292798,452.14796154221324,233.84323058284667,397.3456790123457,226.25554C342.5433964824782,218.66784941715332,248.7759286826045,167.64977638154127,193.82716049382714,160.8761C138.87839230504977,154.10242361845874,122.7483237273687,191.5731438909882,96.91358024691357,218.34316C71.07883676645844,245.11317610901182,35.53941838322922,261.18248805450594,0,277.2518Z" data-darkreader-inline-fill="" style="--darkreader-inline-fill: var(--darkreader-background-9e0142, #7e0135);">
<title>Évora</title>
</path>
<path fill="#d2ed9e" d="M0,383.58698000000004C35.539418383229226,373.39840750715683,71.07883676645845,363.2098350143135,96.91358024691357,347.21819999999997C122.74832372736869,331.2265649856864,138.87839230504977,309.43186744990265,193.82716049382714,310.03056C248.7759286826045,310.6292525500973,342.54339648247816,333.62133518607584,397.3456790123457,333.94676000000004C452.1479615422133,334.27218481392424,467.9850588020747,311.9309518057942,494.2592592592593,298.32656000000003C520.5334597164439,284.72216819420584,557.2447633709515,279.8546175907477,591.1728395061729,268.2498C625.1009156413942,256.6449824092523,656.2457642573295,238.30289783121492,688.0864197530864,230.55592000000001C719.9270752488433,222.8089421687851,752.4635376244216,225.65707108439256,785,228.5052L785,256.65612C752.4635376244216,254.2338744028398,719.9270752488434,251.81162880567962,688.0864197530864,258.40528C656.2457642573294,264.9989311943204,625.1009156413942,280.60847918012144,591.1728395061729,290.72582C557.2447633709515,300.84316081987856,520.533459716444,305.4682944738347,494.2592592592593,317.8837199999999C467.9850588020746,330.29914552616515,452.14796154221324,350.5048629245391,397.3456790123457,350.01204C342.5433964824782,349.5192170754609,248.7759286826045,328.3278538280087,193.82716049382714,328.11702C138.87839230504977,327.90618617199135,122.7483237273687,348.67588176342605,96.91358024691357,363.89234C71.07883676645844,379.10879823657393,35.53941838322922,388.77201911828695,0,398.43523999999996Z" data-darkreader-inline-fill="" style="--darkreader-inline-fill: var(--darkreader-background-d2ed9e, #3c4c0e);">
<title>Faro</title>
</path>
<path fill="#e8f6a4" d="M0,357.26460000000003C35.539418383229226,344.03859258903015,71.07883676645845,330.81258517806026,96.91358024691357,312.52256C122.74832372736869,294.23253482193974,138.87839230504977,270.87849187678916,193.82716049382714,272.87778C248.7759286826045,274.8770681232108,342.54339648247816,302.22968731478306,397.3456790123457,303.05898C452.1479615422133,303.888272685217,467.9850588020747,278.1942388640788,494.2592592592593,262.69488C520.5334597164439,247.19552113592124,557.2447633709515,241.89083722890192,591.1728395061729,228.74544C625.1009156413942,215.6000427710981,656.2457642573295,194.61393222031376,688.0864197530864,185.65008C719.9270752488433,176.68622777968625,752.4635376244216,179.74463388984313,785,182.80304L785,198.86076000000003C752.4635376244216,195.91813071567617,719.9270752488434,192.97550143135237,688.0864197530864,201.6315C656.2457642573294,210.2874985686476,625.1009156413942,230.54212499026676,591.1728395061729,243.66859999999997C557.2447633709515,256.7950750097332,520.533459716444,262.79339860758046,494.2592592592593,277.25194C467.9850588020746,291.7104813924195,452.14796154221324,314.62924057941143,397.3456790123457,315.72898C342.5433964824782,316.8287194205885,248.7759286826045,296.1094390747738,193.82716049382714,296.39428C138.87839230504977,296.6791209252262,122.7483237273687,317.9680831214932,96.91358024691357,334.57032000000004C71.07883676645844,351.1725568785069,35.53941838322922,363.08806843925345,0,375.00358Z" data-darkreader-inline-fill="" style="--darkreader-inline-fill: var(--darkreader-background-e8f6a4, #434c07);">
<title>Guarda</title>
</path>
<path fill="#f7faaf" d="M0,398.43523999999996C35.539418383229226,388.772019118287,71.07883676645845,379.108798236574,96.91358024691357,363.89234C122.74832372736869,348.675881763426,138.87839230504977,327.90618617199124,193.82716049382714,328.11702C248.7759286826045,328.3278538280088,342.54339648247816,349.519217075461,397.3456790123457,350.01204C452.1479615422133,350.50486292453905,467.9850588020747,330.29914552616503,494.2592592592593,317.8837199999999C520.5334597164439,305.4682944738348,557.2447633709515,300.8431608198786,591.1728395061729,290.72582C625.1009156413942,280.6084791801214,656.2457642573295,264.9989311943204,688.0864197530864,258.40528C719.9270752488433,251.81162880567962,752.4635376244216,254.2338744028398,785,256.65612L785,286.87848C752.4635376244216,284.8071511118744,719.9270752488434,282.7358222237489,688.0864197530864,288.49436C656.2457642573294,294.252897776251,625.1009156413942,307.84130221687855,591.1728395061729,316.79256C557.2447633709515,325.7438177831214,520.533459716444,330.0579289087369,494.2592592592593,341.23152000000005C467.9850588020746,352.40511109126317,452.14796154221324,370.43818214817355,397.3456790123457,370.1635C342.5433964824782,369.88881785182645,248.7759286826045,351.3063824985688,193.82716049382714,351.13890000000004C138.87839230504977,350.9714175014313,122.7483237273687,369.21888785755175,96.91358024691357,382.70203999999995C71.07883676645844,396.18519214244816,35.53941838322922,404.9040260712241,0,413.62286000000006Z" data-darkreader-inline-fill="" style="--darkreader-inline-fill: var(--darkreader-background-f7faaf, #464805);">
<title>Leiria</title>
</path>
<path fill="#fdf4ab" d="M0,510.15118C35.539418383229226,507.27952733310434,71.07883676645845,504.4078746662087,96.91358024691357,499.89730000000003C122.74832372736869,495.38672533379133,138.87839230504977,489.2372286682698,193.82716049382714,486.09652C248.7759286826045,482.9558113317302,342.54339648247816,482.82389066071227,397.3456790123457,479.86287999999996C452.1479615422133,476.90186933928766,467.9850588020747,471.11176868888134,494.2592592592593,466.97518C520.5334597164439,462.8385913111187,557.2447633709515,460.3555145837629,591.1728395061729,456.7955C625.1009156413942,453.2354854162371,656.2457642573295,448.5985329760677,688.0864197530864,446.72389999999996C719.9270752488433,444.8492670239322,752.4635376244216,445.73695351196614,785,446.62464L785,497.8428C752.4635376244216,497.5620281484027,719.9270752488434,497.2812562968053,688.0864197530864,497.97411999999997C656.2457642573294,498.66698370319466,625.1009156413942,500.3334829611818,591.1728395061729,502.33064C557.2447633709515,504.32779703881823,520.533459716444,506.65561185846786,494.2592592592593,509.51473999999996C467.9850588020746,512.3738681415321,452.14796154221324,515.7643096049467,397.3456790123457,517.1215C342.5433964824782,518.4786903950533,248.7759286826045,517.8026297217452,193.82716049382714,519.53916C138.87839230504977,521.2756902782548,122.7483237273687,525.4248115080728,96.91358024691357,527.88638C71.07883676645844,530.3479484919272,35.53941838322922,531.1219642459637,0,531.89598Z" data-darkreader-inline-fill="" style="--darkreader-inline-fill: var(--darkreader-background-fdf4ab, #4b4302);">
<title>Lisboa</title>
</path>
<path fill="#fecf7e" d="M0,263.47538C35.539418383229226,246.28110144509333,71.07883676645845,229.08682289018665,96.91358024691357,201.117C122.74832372736869,173.14717710981333,138.87839230504977,134.40180988434673,193.82716049382714,141.34931999999998C248.7759286826045,148.29683011565322,342.54339648247816,200.9372175724264,397.3456790123457,208.9213C452.1479615422133,216.9053824275736,467.9850588020747,180.23315982594755,494.2592592592593,159.35934C520.5334597164439,138.48552017405245,557.2447633709515,133.41010312378336,591.1728395061729,117.59398000000002C625.1009156413942,101.77785687621667,656.2457642573295,75.22102767891906,688.0864197530864,63.785540000000026C719.9270752488433,52.35005232108099,752.4635376244216,56.0359061605405,785,59.72176000000001L785,69.16392000000002C752.4635376244216,65.55445110958436,719.9270752488434,61.94498221916869,688.0864197530864,73.29392000000003C656.2457642573294,84.64285778083136,625.1009156413942,110.95020223290967,591.1728395061729,126.64189999999999C557.2447633709515,142.3335977670903,520.533459716444,147.4096488491927,494.2592592592593,168.01512000000002C467.9850588020746,188.62059115080734,452.14796154221324,224.75548237031953,397.3456790123457,217.31346000000002C342.5433964824782,209.8714376296805,248.7759286826045,158.85250166952935,193.82716049382714,152.25573999999997C138.87839230504977,145.6589783304706,122.7483237273687,183.48439095156306,96.91358024691357,210.70210000000003C71.07883676645844,237.919809048437,35.53941838322922,254.52981452421852,0,271.13982000000004Z" data-darkreader-inline-fill="" style="--darkreader-inline-fill: var(--darkreader-background-fecf7e, #805101);">
<title>Portalegre</title>
</path>
<path fill="#fcb469" d="M0,531.89598C35.539418383229226,531.1219642459636,71.07883676645845,530.3479484919271,96.91358024691357,527.88638C122.74832372736869,525.4248115080729,138.87839230504977,521.2756902782551,193.82716049382714,519.53916C248.7759286826045,517.802629721745,342.54339648247816,518.4786903950531,397.3456790123457,517.1215C452.1479615422133,515.7643096049468,467.9850588020747,512.3738681415323,494.2592592592593,509.51473999999996C520.5334597164439,506.6556118584677,557.2447633709515,504.3277970388181,591.1728395061729,502.33064C625.1009156413942,500.3334829611819,656.2457642573295,498.6669837031947,688.0864197530864,497.97411999999997C719.9270752488433,497.2812562968052,752.4635376244216,497.56202814840265,785,497.8428L785,560C752.4635376244216,560,719.9270752488434,560,688.0864197530864,560C656.2457642573294,560,625.1009156413942,560,591.1728395061729,560C557.2447633709515,560,520.533459716444,559.9999999999999,494.2592592592593,560C467.9850588020746,560.0000000000001,452.14796154221324,560.0000000000001,397.3456790123457,560C342.5433964824782,559.9999999999999,248.7759286826045,560,193.82716049382714,560C138.87839230504977,560,122.7483237273687,560,96.91358024691357,560C71.07883676645844,560,35.53941838322922,560,0,560Z" data-darkreader-inline-fill="" style="--darkreader-inline-fill: var(--darkreader-background-fcb469, #8c4903);">
<title>Porto</title>
</path>
<path fill="#f99657" d="M0,432.69478C35.539418383229226,425.23805338142677,71.07883676645845,417.78132676285355,96.91358024691357,406.13748C122.74832372736869,394.4936332371464,138.87839230504977,378.66266633001266,193.82716049382714,377.85958000000005C248.7759286826045,377.05649366998745,342.54339648247816,391.28128791709617,397.3456790123457,390.39014000000003C452.1479615422133,389.4989920829039,467.9850588020747,373.49190200160314,494.2592592592593,363.29215999999997C520.5334597164439,353.0924179983968,557.2447633709515,348.70002407649145,591.1728395061729,340.49987999999996C625.1009156413942,332.2997359235085,656.2457642573295,320.291841692431,688.0864197530864,315.11269999999996C719.9270752488433,309.93355830756894,752.4635376244216,311.58316915378447,785,313.23278L785,342.56012C752.4635376244216,341.3548573388298,719.9270752488434,340.1495946776594,688.0864197530864,344.73082C656.2457642573294,349.31204532234057,625.1009156413942,359.6797586281919,591.1728395061729,367.06474C557.2447633709515,374.44972137180804,520.533459716444,378.8519708095729,494.2592592592593,387.8077C467.9850588020746,396.76342919042713,452.14796154221324,410.27263813351664,397.3456790123457,413.00546C342.5433964824782,415.7382818664834,248.7759286826045,407.6947166563608,193.82716049382714,409.56762C138.87839230504977,411.44052334363914,122.7483237273687,423.22989524103974,96.91358024691357,432.14696000000004C71.07883676645844,441.06402475896033,35.53941838322922,447.10878237948015,0,453.15353999999996Z" data-darkreader-inline-fill="" style="--darkreader-inline-fill: var(--darkreader-background-f99657, #963e05);">
<title>Santarém</title>
</path>
<path fill="#f2764b" d="M0,375.00358C35.539418383229226,363.08806843925345,71.07883676645845,351.1725568785069,96.91358024691357,334.57032000000004C122.74832372736869,317.9680831214932,138.87839230504977,296.67912092522613,193.82716049382714,296.39428C248.7759286826045,296.10943907477383,342.54339648247816,316.8287194205885,397.3456790123457,315.72898C452.1479615422133,314.62924057941143,467.9850588020747,291.7104813924196,494.2592592592593,277.25194C520.5334597164439,262.7933986075804,557.2447633709515,256.7950750097331,591.1728395061729,243.66859999999997C625.1009156413942,230.5421249902668,656.2457642573295,210.28749856864766,688.0864197530864,201.6315C719.9270752488433,192.9755014313523,752.4635376244216,195.91813071567617,785,198.86076000000003L785,228.5052C752.4635376244216,225.65707108439256,719.9270752488434,222.80894216878505,688.0864197530864,230.55592000000001C656.2457642573294,238.30289783121498,625.1009156413942,256.64498240925224,591.1728395061729,268.2498C557.2447633709515,279.85461759074775,520.533459716444,284.7221681942059,494.2592592592593,298.32656000000003C467.9850588020746,311.93095180579417,452.14796154221324,334.2721848139243,397.3456790123457,333.94676000000004C342.5433964824782,333.6213351860758,248.7759286826045,310.62925255009736,193.82716049382714,310.03056C138.87839230504977,309.4318674499026,122.7483237273687,331.2265649856864,96.91358024691357,347.21819999999997C71.07883676645844,363.2098350143135,35.53941838322922,373.3984075071568,0,383.58698000000004Z" data-darkreader-inline-fill="" style="--darkreader-inline-fill: var(--darkreader-background-f2764b, #9c300b);">
<title>Setúbal</title>
</path>
<path fill="#e65a49" d="M0,316.37578C35.539418383229226,301.2887786556739,71.07883676645845,286.2017773113478,96.91358024691357,263.30346000000003C122.74832372736869,240.40514268865223,138.87839230504977,209.69550941028288,193.82716049382714,214.71800000000002C248.7759286826045,219.74049058971715,342.54339648247816,260.4951050475209,397.3456790123457,265.11338C452.1479615422133,269.7316549524791,467.9850588020747,238.21359039963357,494.2592592592593,220.12563999999998C520.5334597164439,202.03768960036638,557.2447633709515,197.37985335394472,591.1728395061729,183.41931999999997C625.1009156413942,169.45878664605522,656.2457642573295,146.19555618458725,688.0864197530864,136.14160000000004C719.9270752488433,126.08764381541282,752.4635376244216,129.2429619077064,785,132.39827999999997L785,149.70662C752.4635376244216,146.57098996679264,719.9270752488434,143.43535993358526,688.0864197530864,153.06563999999997C656.2457642573294,162.6959200664147,625.1009156413942,185.09211023245157,591.1728395061729,198.62149999999997C557.2447633709515,212.15088976754836,520.533459716444,216.8134791366083,494.2592592592593,234.08266000000003C467.9850588020746,251.35184086339177,452.14796154221324,281.22761322111535,397.3456790123457,276.87968C342.5433964824782,272.53174677888467,248.7759286826045,233.96010797893047,193.82716049382714,229.25518C138.87839230504977,224.55025202106953,122.7483237273687,253.71203486316267,96.91358024691357,275.76052C71.07883676645844,297.8090051368373,35.53941838322922,312.74419256841867,0,327.67938000000004Z" data-darkreader-inline-fill="" style="--darkreader-inline-fill: var(--darkreader-background-e65a49, #9a2415);">
<title>Viana do Castelo</title>
</path>
<path fill="#d33e4b" d="M0,327.67938000000004C35.539418383229226,312.74419256841867,71.07883676645845,297.8090051368373,96.91358024691357,275.76052C122.74832372736869,253.71203486316267,138.87839230504977,224.55025202106947,193.82716049382714,229.25518C248.7759286826045,233.96010797893052,342.54339648247816,272.53174677888467,397.3456790123457,276.87968C452.1479615422133,281.22761322111535,467.9850588020747,251.3518408633918,494.2592592592593,234.08266000000003C520.5334597164439,216.81347913660827,557.2447633709515,212.15088976754834,591.1728395061729,198.62149999999997C625.1009156413942,185.0921102324516,656.2457642573295,162.69592006641474,688.0864197530864,153.06563999999997C719.9270752488433,143.4353599335852,752.4635376244216,146.57098996679258,785,149.70662L785,166.46293999999997C752.4635376244216,163.39105184014656,719.9270752488434,160.31916368029312,688.0864197530864,169.62428C656.2457642573294,178.92939631970688,625.1009156413942,200.61151711897404,591.1728395061729,213.83880000000002C557.2447633709515,227.066082881026,520.533459716444,231.83852784381088,494.2592592592593,248.18892000000002C467.9850588020746,264.53931215618917,452.14796154221324,292.4676515057826,397.3456790123457,289.34849999999994C342.5433964824782,286.2293484942173,248.7759286826045,252.06270613305853,193.82716049382714,248.63496C138.87839230504977,245.2072138669415,122.7483237273687,272.5183639619833,96.91358024691357,293.01384C71.07883676645844,313.5093160380167,35.53941838322922,327.18911801900833,0,340.86892Z" data-darkreader-inline-fill="" style="--darkreader-inline-fill: var(--darkreader-background-d33e4b, #9d242e);">
<title>Vila Real</title>
</path>
<path fill="#ba2148" d="M0,453.15353999999996C35.539418383229226,447.1087823794802,71.07883676645845,441.06402475896033,96.91358024691357,432.14696000000004C122.74832372736869,423.22989524103974,138.87839230504977,411.44052334363914,193.82716049382714,409.56762C248.7759286826045,407.6947166563608,342.54339648247816,415.7382818664834,397.3456790123457,413.00546C452.1479615422133,410.27263813351664,467.9850588020747,396.76342919042713,494.2592592592593,387.8077C520.5334597164439,378.8519708095729,557.2447633709515,374.44972137180815,591.1728395061729,367.06474C625.1009156413942,359.6797586281918,656.2457642573295,349.3120453223405,688.0864197530864,344.73082C719.9270752488433,340.1495946776595,752.4635376244216,341.35485733882973,785,342.56012L785,371.57946C752.4635376244216,370.61803843123784,719.9270752488434,369.65661686247563,688.0864197530864,373.52223999999995C656.2457642573294,377.3878631375243,625.1009156413942,386.0805309813352,591.1728395061729,392.63126C557.2447633709515,399.1819890186648,520.533459716444,403.5907792121836,494.2592592592593,410.95684C467.9850588020746,418.3229007878164,452.14796154221324,428.6462321699302,397.3456790123457,433.42488000000003C342.5433964824782,438.20352783006985,248.7759286826045,437.4374921080958,193.82716049382714,441.66388C138.87839230504977,445.8902678919042,122.7483237273687,455.10907939768686,96.91358024691357,461.79518C71.07883676645844,468.4812806023132,35.53941838322922,472.6346703011566,0,476.78806000000003Z" data-darkreader-inline-fill="" style="--darkreader-inline-fill: var(--darkreader-background-ba2148, #951a3a);">
<title>Viseu</title>
</path>
<path fill="#496daf" d="M0,305.6949C35.539418383229226,290.5913004557426,71.07883676645845,275.48770091148515,96.91358024691357,251.62899999999996C122.74832372736869,227.77029908851475,138.87839230504977,195.15649680980187,193.82716049382714,200.59214C248.7759286826045,206.02778319019814,342.54339648247816,249.5128718493072,397.3456790123457,254.87308C452.1479615422133,260.2332881506928,467.9850588020747,227.46861579296913,494.2592592592593,208.78507999999997C520.5334597164439,190.1015442070308,557.2447633709515,185.49914497881596,591.1728395061729,171.15742C625.1009156413942,156.81569502118404,656.2457642573295,132.73464429176687,688.0864197530864,122.30708000000001C719.9270752488433,111.87951570823314,752.4635376244216,115.10543785411656,785,118.33135999999999L785,132.39827999999997C752.4635376244216,129.24296190770644,719.9270752488434,126.08764381541286,688.0864197530864,136.14160000000004C656.2457642573294,146.19555618458722,625.1009156413942,169.45878664605516,591.1728395061729,183.41931999999997C557.2447633709515,197.37985335394478,520.533459716444,202.03768960036643,494.2592592592593,220.12563999999998C467.9850588020746,238.21359039963352,452.14796154221324,269.73165495247906,397.3456790123457,265.11338C342.5433964824782,260.49510504752095,248.7759286826045,219.74049058971718,193.82716049382714,214.71800000000002C138.87839230504977,209.69550941028285,122.7483237273687,240.4051426886523,96.91358024691357,263.30346000000003C71.07883676645844,286.20177731134777,35.53941838322922,301.2887786556739,0,316.37578Z" data-darkreader-inline-fill="" style="--darkreader-inline-fill: var(--darkreader-background-496daf, #3a578c);">
<title>Açores</title>
</path>
<path fill="#fee597" d="M0,277.2518C35.539418383229226,261.18248805450594,71.07883676645845,245.11317610901185,96.91358024691357,218.34316C122.74832372736869,191.57314389098818,138.87839230504977,154.10242361845874,193.82716049382714,160.8761C248.7759286826045,167.64977638154127,342.54339648247816,218.66784941715332,397.3456790123457,226.25554C452.1479615422133,233.84323058284667,467.9850588020747,198.000538712928,494.2592592592593,177.63242000000002C520.5334597164439,157.26430128707204,557.2447633709515,152.37075573113478,591.1728395061729,136.98762000000002C625.1009156413942,121.60448426886526,656.2457642573295,95.73175836253293,688.0864197530864,84.55803999999999C719.9270752488433,73.38432163746705,752.4635376244216,76.90961081873353,785,80.4349L785,93.1707C752.4635376244216,89.9596846879652,719.9270752488434,86.74866937593039,688.0864197530864,97.43257999999999C656.2457642573294,108.11649062406958,625.1009156413942,132.69532718424367,591.1728395061729,147.45947999999999C557.2447633709515,162.2236328157563,520.533459716444,167.1731018870949,494.2592592592593,187.13128C467.9850588020746,207.0894581129051,452.14796154221324,242.0563452673766,397.3456790123457,235.0068C342.5433964824782,227.9572547326234,248.7759286826045,178.89127704339862,193.82716049382714,171.96620000000001C138.87839230504977,165.0411229566014,122.7483237273687,200.25694655902896,96.91358024691357,226.04736C71.07883676645844,251.83777344097103,35.53941838322922,268.20277672048553,0,284.56777999999997Z" data-darkreader-inline-fill="" style="--darkreader-inline-fill: var(--darkreader-background-fee597, #554001);">
<title>Madeira</title>
</path

>
</g>
<g id="xAxis" transform="translate(0,560)" fill="none" font-size="10" font-family="sans-serif" text-anchor="middle">
<path class="domain" stroke="currentColor" d="M0,0H785" data-darkreader-inline-stroke="" style="--darkreader-inline-stroke: currentColor;"/>
<g class="tick" opacity="1" transform="translate(0,0)">
<line stroke="currentColor" y2="6" data-darkreader-inline-stroke="" style="--darkreader-inline-stroke: currentColor;"/>
<text fill="currentColor" y="9" dy="0.71em" data-darkreader-inline-fill="" style="--darkreader-inline-fill: currentColor;">1940</text>
</g>
<g class="tick" opacity="1" transform="translate(96.91358024691357,0)">
<line stroke="currentColor" y2="6" data-darkreader-inline-stroke="" style="--darkreader-inline-stroke: currentColor;"/>
<text fill="currentColor" y="9" dy="0.71em" data-darkreader-inline-fill="" style="--darkreader-inline-fill: currentColor;">1950</text>
</g>
<g class="tick" opacity="1" transform="translate(193.82716049382714,0)">
<line stroke="currentColor" y2="6" data-darkreader-inline-stroke="" style="--darkreader-inline-stroke: currentColor;"/>
<text fill="currentColor" y="9" dy="0.71em" data-darkreader-inline-fill="" style="--darkreader-inline-fill: currentColor;">1960</text>
</g>
<g class="tick" opacity="1" transform="translate(290.7407407407407,0)">
<line stroke="currentColor" y2="6" data-darkreader-inline-stroke="" style="--darkreader-inline-stroke: currentColor;"/>
<text fill="currentColor" y="9" dy="0.71em" data-darkreader-inline-fill="" style="--darkreader-inline-fill: currentColor;">1970</text>
</g>
<g class="tick" opacity="1" transform="translate(387.6543209876543,0)">
<line stroke="currentColor" y2="6" data-darkreader-inline-stroke="" style="--darkreader-inline-stroke: currentColor;"/>
<text fill="currentColor" y="9" dy="0.71em" data-darkreader-inline-fill="" style="--darkreader-inline-fill: currentColor;">1980</text>
</g>
<g class="tick" opacity="1" transform="translate(484.5679012345679,0)">
<line stroke="currentColor" y2="6" data-darkreader-inline-stroke="" style="--darkreader-inline-stroke: currentColor;"/>
<text fill="currentColor" y="9" dy="0.71em" data-darkreader-inline-fill="" style="--darkreader-inline-fill: currentColor;">1990</text>
</g>
<g class="tick" opacity="1" transform="translate(581.4814814814814,0)">
<line stroke="currentColor" y2="6" data-darkreader-inline-stroke="" style="--darkreader-inline-stroke: currentColor;"/>
<text fill="currentColor" y="9" dy="0.71em" data-darkreader-inline-fill="" style="--darkreader-inline-fill: currentColor;">2000</text>
</g>
<g class="tick" opacity="1" transform="translate(678.395061728395,0)">
<line stroke="currentColor" y2="6" data-darkreader-inline-stroke="" style="--darkreader-inline-stroke: currentColor;"/>
<text fill="currentColor" y="9" dy="0.71em" data-darkreader-inline-fill="" style="--darkreader-inline-fill: currentColor;">2010</text>
</g>
<g class="tick" opacity="1" transform="translate(775.3086419753085,0)">
<line stroke="currentColor" y2="6" data-darkreader-inline-stroke="" style="--darkreader-inline-stroke: currentColor;"/>
<text fill="currentColor" y="9" dy="0.71em" data-darkreader-inline-fill="" style="--darkreader-inline-fill: currentColor;">2020</text>
</g>
</g>
<g id="yAxis" fill="none" font-size="10" font-family="sans-serif" text-anchor="end">
<path class="domain" stroke="currentColor" d="M0,560V0" data-darkreader-inline-stroke="" style="--darkreader-inline-stroke: currentColor;"/>
<g class="tick" opacity="1" transform="translate(0,560)">
<line stroke="currentColor" x2="-6" data-darkreader-inline-stroke="" style="--darkreader-inline-stroke: currentColor;"/>
<text fill="currentColor" x="-9" dy="0.32em" data-darkreader-inline-fill="" style="--darkreader-inline-fill: currentColor;">0</text>
</g>
<g class="tick" opacity="1" transform="translate(0,490)">
<line stroke="currentColor" x2="-6" data-darkreader-inline-stroke="" style="--darkreader-inline-stroke: currentColor;"/>
<text fill="currentColor" x="-9" dy="0.32em" data-darkreader-inline-fill="" style="--darkreader-inline-fill: currentColor;">500,000</text>
</g>
<g class="tick" opacity="1" transform="translate(0,420)">
<line stroke="currentColor" x2="-6" data-darkreader-inline-stroke="" style="--darkreader-inline-stroke: currentColor;"/>
<text fill="currentColor" x="-9" dy="0.32em" data-darkreader-inline-fill="" style="--darkreader-inline-fill: currentColor;">1,000,000</text>
</g>
<g class="tick" opacity="1" transform="translate(0,350)">
<line stroke="currentColor" x2="-6" data-darkreader-inline-stroke="" style="--darkreader-inline-stroke: currentColor;"/>
<text fill="currentColor" x="-9" dy="0.32em" data-darkreader-inline-fill="" style="--darkreader-inline-fill: currentColor;">1,500,000</text>
</g>
<g class="tick" opacity="1" transform="translate(0,280)">
<line stroke="currentColor" x2="-6" data-darkreader-inline-stroke="" style="--darkreader-inline-stroke: currentColor;"/>
<text fill="currentColor" x="-9" dy="0.32em" data-darkreader-inline-fill="" style="--darkreader-inline-fill: currentColor;">2,000,000</text>
</g>
<g class="tick" opacity="1" transform="translate(0,210)">
<line stroke="currentColor" x2="-6" data-darkreader-inline-stroke="" style="--darkreader-inline-stroke: currentColor;"/>
<text fill="currentColor" x="-9" dy="0.32em" data-darkreader-inline-fill="" style="--darkreader-inline-fill: currentColor;">2,500,000</text>
</g>
<g class="tick" opacity="1" transform="translate(0,140)">
<line stroke="currentColor" x2="-6" data-darkreader-inline-stroke="" style="--darkreader-inline-stroke: currentColor;"/>
<text fill="currentColor" x="-9" dy="0.32em" data-darkreader-inline-fill="" style="--darkreader-inline-fill: currentColor;">3,000,000</text>
</g>
<g class="tick" opacity="1" transform="translate(0,70)">
<line stroke="currentColor" x2="-6" data-darkreader-inline-stroke="" style="--darkreader-inline-stroke: currentColor;"/>
<text fill="currentColor" x="-9" dy="0.32em" data-darkreader-inline-fill="" style="--darkreader-inline-fill: currentColor;">3,500,000</text>
</g>
<g class="tick" opacity="1" transform="translate(0,0)">
<line stroke="currentColor" x2="-6" data-darkreader-inline-stroke="" style="--darkreader-inline-stroke: currentColor;"/>
<text fill="currentColor" x="-9" dy="0.32em" data-darkreader-inline-fill="" style="--darkreader-inline-fill: currentColor;">4,000,000</text>
</g>
</g>
<text y="556" x="785" text-anchor="end" style="font-family: Arial, sans-serif; font-size: 12px; fill: rgb(123, 123, 123); font-weight: bold; --darkreader-inline-fill: var(--darkreader-text-7b7b7b, #9a9284);" data-darkreader-inline-fill="">Ano</text>
<text x="4" text-anchor="start" dominant-baseline="hanging" style="font-family: Arial, sans-serif; font-size: 12px; fill: rgb(123, 123, 123); font-weight: bold; --darkreader-inline-fill: var(--darkreader-text-7b7b7b, #9a9284);" data-darkreader-inline-fill="">Habitações</text>
<g id="labels">
<text dy="0.5ex" class="label">
<textPath xmlns:xlink="http://www.w3.org/1999/xlink" xlink:href="#path-0-0" startOffset="88%" alignment-baseline="middle" text-anchor="middle" style="font-family: Arial, sans-serif; font-size: 10px; fill: black; font-weight: bold; --darkreader-inline-fill: var(--darkreader-text-000000, #e8e6e3);" data-darkreader-inline-fill="">Aveiro</textPath>
</text>
<text dy="0.5ex" class="label">
<textPath xmlns:xlink="http://www.w3.org/1999/xlink" xlink:href="#path-0-1" startOffset="25%" alignment-baseline="middle" text-anchor="middle" style="font-family: Arial, sans-serif; font-size: 10px; fill: black; font-weight: bold; --darkreader-inline-fill: var(--darkreader-text-000000, #e8e6e3);" data-darkreader-inline-fill="">Beja</textPath>
</text>
<text dy="0.5ex" class="label">
<textPath xmlns:xlink="http://www.w3.org/1999/xlink" xlink:href="#path-0-2" startOffset="88%" alignment-baseline="middle" text-anchor="middle" style="font-family: Arial, sans-serif; font-size: 10px; fill: black; font-weight: bold; --darkreader-inline-fill: var(--darkreader-text-000000, #e8e6e3);" data-darkreader-inline-fill="">Braga</textPath>
</text>
<text dy="0.5ex" class="label">
<textPath xmlns:xlink="http://www.w3.org/1999/xlink" xlink:href="#path-0-3" startOffset="25%" alignment-baseline="middle" text-anchor="middle" style="font-family: Arial, sans-serif; font-size: 10px; fill: black; font-weight: bold; --darkreader-inline-fill: var(--darkreader-text-000000, #e8e6e3);" data-darkreader-inline-fill="">Bragança</textPath>
</text>
<text dy="0.5ex" class="label">
<textPath xmlns:xlink="http://www.w3.org/1999/xlink" xlink:href="#path-0-4" startOffset="25%" alignment-baseline="middle" text-anchor="middle" style="font-family: Arial, sans-serif; font-size: 10px; fill: black; font-weight: bold; --darkreader-inline-fill: var(--darkreader-text-000000, #e8e6e3);" data-darkreader-inline-fill="">Castelo Branco</textPath>
</text>
<text dy="0.5ex" class="label">
<textPath xmlns:xlink="http://www.w3.org/1999/xlink" xlink:href="#path-0-5" startOffset="25%" alignment-baseline="middle" text-anchor="middle" style="font-family: Arial, sans-serif; font-size: 10px; fill: black; font-weight: bold; --darkreader-inline-fill: var(--darkreader-text-000000, #e8e6e3);" data-darkreader-inline-fill="">Coimbra</textPath>
</text>
<text dy="0.5ex" class="label">
<textPath xmlns:xlink="http://www.w3.org/1999/xlink" xlink:href="#path-0-6" startOffset="88%" alignment-baseline="middle" text-anchor="middle" style="font-family: Arial, sans-serif; font-size: 10px; fill: black; font-weight: bold; --darkreader-inline-fill: var(--darkreader-text-000000, #e8e6e3);" data-darkreader-inline-fill="">Évora</textPath>
</text>
<text dy="0.5ex" class="label">
<textPath xmlns:xlink="http://www.w3.org/1999/xlink" xlink:href="#path-0-7" startOffset="88%" alignment-baseline="middle" text-anchor="middle" style="font-family: Arial, sans-serif; font-size: 10px; fill: black; font-weight: bold; --darkreader-inline-fill: var(--darkreader-text-000000, #e8e6e3);" data-darkreader-inline-fill="">Faro</textPath>
</text>
<text dy="0.5ex" class="label">
<textPath xmlns:xlink="http://www.w3.org/1999/xlink" xlink:href="#path-0-8" startOffset="25%" alignment-baseline="middle" text-anchor="middle" style="font-family: Arial, sans-serif; font-size: 10px; fill: black; font-weight: bold; --darkreader-inline-fill: var(--darkreader-text-000000, #e8e6e3);" data-darkreader-inline-fill="">Guarda</textPath>
</text>
<text dy="0.5ex" class="label">
<textPath xmlns:xlink="http://www.w3.org/1999/xlink" xlink:href="#path-0-9" startOffset="88%" alignment-baseline="middle" text-anchor="middle" style="font-family: Arial, sans-serif; font-size: 10px; fill: black; font-weight: bold; --darkreader-inline-fill: var(--darkreader-text-000000, #e8e6e3);" data-darkreader-inline-fill="">Leiria</textPath>
</text>
<text dy="0.5ex" class="label">
<textPath xmlns:xlink="http://www.w3.org/1999/xlink" xlink:href="#path-0-10" startOffset="75%" alignment-baseline="middle" text-anchor="middle" style="font-family: Arial, sans-serif; font-size: 10px; fill: black; font-weight: bold; --darkreader-inline-fill: var(--darkreader-text-000000, #e8e6e3);" data-darkreader-inline-fill="">Lisboa</textPath>
</text>
<text dy="0.5ex" class="label">
<textPath xmlns:xlink="http://www.w3.org/1999/xlink" xlink:href="#path-0-11" startOffset="25%" alignment-baseline="middle" text-anchor="middle" style="font-family: Arial, sans-serif; font-size: 10px; fill: black; font-weight: bold; --darkreader-inline-fill: var(--darkreader-text-000000, #e8e6e3);" data-darkreader-inline-fill="">Portalegre</textPath>
</text>
<text dy="0.5ex" class="label">
<textPath xmlns:xlink="http://www.w3.org/1999/xlink" xlink:href="#path-0-12" startOffset="88%" alignment-baseline="middle" text-anchor="middle" style="font-family: Arial, sans-serif; font-size: 10px; fill: black; font-weight: bold; --darkreader-inline-fill: var(--darkreader-text-000000, #e8e6e3);" data-darkreader-inline-fill="">Porto</textPath>
</text>
<text dy="0.5ex" class="label">
<textPath xmlns:xlink="http://www.w3.org/1999/xlink" xlink:href="#path-0-13" startOffset="25%" alignment-baseline="middle" text-anchor="middle" style="font-family: Arial, sans-serif; font-size: 10px; fill: black; font-weight: bold; --darkreader-inline-fill: var(--darkreader-text-000000, #e8e6e3);" data-darkreader-inline-fill="">Santarém</textPath>
</text>
<text dy="0.5ex" class="label">
<textPath xmlns:xlink="http://www.w3.org/1999/xlink" xlink:href="#path-0-14" startOffset="88%" alignment-baseline="middle" text-anchor="middle" style="font-family: Arial, sans-serif; font-size: 10px; fill: black; font-weight: bold; --darkreader-inline-fill: var(--darkreader-text-000000, #e8e6e3);" data-darkreader-inline-fill="">Setúbal</textPath>
</text>
<text dy="0.5ex" class="label">
<textPath xmlns:xlink="http://www.w3.org/1999/xlink" xlink:href="#path-0-15" startOffset="88%" alignment-baseline="middle" text-anchor="middle" style="font-family: Arial, sans-serif; font-size: 10px; fill: black; font-weight: bold; --darkreader-inline-fill: var(--darkreader-text-000000, #e8e6e3);" data-darkreader-inline-fill="">Viana do Castelo</textPath>
</text>
<text dy="0.5ex" class="label">
<textPath xmlns:xlink="http://www.w3.org/1999/xlink" xlink:href="#path-0-16" startOffset="25%" alignment-baseline="middle" text-anchor="middle" style="font-family: Arial, sans-serif; font-size: 10px; fill: black; font-weight: bold; --darkreader-inline-fill: var(--darkreader-text-000000, #e8e6e3);" data-darkreader-inline-fill="">Vila Real</textPath>
</text>
<text dy="0.5ex" class="label">
<textPath xmlns:xlink="http://www.w3.org/1999/xlink" xlink:href="#path-0-17" startOffset="25%" alignment-baseline="middle" text-anchor="middle" style="font-family: Arial, sans-serif; font-size: 10px; fill: black; font-weight: bold; --darkreader-inline-fill: var(--darkreader-text-000000, #e8e6e3);" data-darkreader-inline-fill="">Viseu</textPath>
</text>
<text dy="0.5ex" class="label">
<textPath xmlns:xlink="http://www.w3.org/1999/xlink" xlink:href="#path-0-18" startOffset="25%" alignment-baseline="middle" text-anchor="middle" style="font-family: Arial, sans-serif; font-size: 10px; fill: black; font-weight: bold; --darkreader-inline-fill: var(--darkreader-text-000000, #e8e6e3);" data-darkreader-inline-fill="">Açores</textPath>
</text>
<text dy="0.5ex" class="label">
<textPath xmlns:xlink="http://www.w3.org/1999/xlink" xlink:href="#path-0-19" startOffset="75%" alignment-baseline="middle" text-anchor="middle" style="font-family: Arial, sans-serif; font-size: 10px; fill: black; font-weight: bold; --darkreader-inline-fill: var(--darkreader-text-000000, #e8e6e3);" data-darkreader-inline-fill="">Madeira</textPath>
</text>
</g>
</g>
</g>
</g>
<defs>
<path id="path-0-0" d="M0,485.53484000000003C35.539418383229226,481.6024755296004,71.07883676645845,477.6701110592007,96.91358024691357,471.54548C122.74832372736869,465.4208489407993,138.87839230504977,457.1039512927975,193.82716049382714,453.14668C248.7759286826045,449.1894087072025,342.54339648247816,449.5917637696095,397.3456790123457,445.19523999999996C452.1479615422133,440.7987162303904,467.9850588020747,431.6033136287645,494.2592592592593,424.99667C520.5334597164439,418.3900263712355,557.2447633709515,414.37214171533265,591.1728395061729,408.47267999999997C625.1009156413942,402.5732182846673,656.2457642573295,394.792179509905,688.0864197530864,391.33073C719.9270752488433,387.86928049009504,752.4635376244216,388.7274202450475,785,389.58556"/>
<path id="path-0-1" d="M0,300.31456C35.539418383229226,284.9662343879537,71.07883676645845,269.6179087759075,96.91358024691357,245.40908C122.74832372736869,221.20025122409248,138.87839230504977,188.13091928432382,193.82716049382714,193.80892999999998C248.7759286826045,199.48694071567613,342.54339648247816,243.91229408679717,397.3456790123457,249.56813000000002C452.1479615422133,255.22396591320287,467.9850588020747,222.1102843684874,494.2592592592593,203.19173000000004C520.5334597164439,184.27317563151266,557.2447633709515,179.54974843925342,591.1728395061729,165.05314C625.1009156413942,150.5565315607466,656.2457642573295,126.28674187449903,688.0864197530864,115.77258000000002C719.9270752488433,105.25841812550101,752.4635376244216,108.49988406275051,785,111.74135000000001"/>
<path id="path-0-2" d="M0,502.2164C35.539418383229226,498.92490404557424,71.07883676645845,495.63340809114845,96.91358024691357,490.59654C122.74832372736869,485.55967190885156,138.87839230504977,478.77743168098027,193.82716049382714,475.363C248.7759286826045,471.9485683190197,342.54339648247816,471.90194518493075,397.3456790123457,468.41424C452.1479615422133,464.92653481506926,467.9850588020747,457.99774757929686,494.2592592592593,453.00584C520.5334597164439,448.0139324207031,557.2447633709515,444.95890449788163,591.1728395061729,440.5548C625.1009156413942,436.15069550211837,656.2457642573295,430.3975144291767,688.0864197530864,427.93156C719.9270752488433,425.4656055708233,752.4635376244216,426.28687778541166,785,427.10814999999997"/>
<path id="path-0-3" d="M0,289.75100000000003C35.539418383229226,273.7719725203252,71.07883676645845,257.79294504065035,96.91358024691357,232.61826C122.74832372736869,207.4435749593496,138.87839230504977,173.0732323577236,193.82716049382714,179.49596C248.7759286826045,185.91868764227638,342.54339648247816,233.13448552845531,397.3456790123457,239.63499000000002C452.1479615422133,246.13549447154472,467.9850588020747,211.92070552845527,494.2592592592593,192.36483C520.5334597164439,172.80895447154475,557.2447633709515,167.91199235772356,591.1728395061729,153.20417C625.1009156413942,138.49634764227645,656.2457642573295,113.97766504065044,688.0864197530864,103.33533000000003C719.9270752488433,92.69299495934962,752.4635376244216,95.9270074796748,785,99.16101999999998"/>
<path id="path-0-4" d="M0,349.06676C35.539418383229226,335.6138553040191,71.07883676645845,322.1609506080384,96.91358024691357,302.7682C122.74832372736869,283.3754493919616,138.87839230504977,258.04285287186536,193.82716049382714,260.75637C248.7759286826045,263.46988712813464,342.54339648247816,294.22951790450014,397.3456790123457,296.20374C452.1479615422133,298.1779620954998,467.9850588020747,271.36677551013395,494.2592592592593,255.44189999999998C520.5334597164439,239.51702448986597,557.2447633709515,234.47846005496388,591.1728395061729,221.29212C625.1009156413942,208.10577994503615,656.2457642573295,186.77166427001032,688.0864197530864,177.63718C719.9270752488433,168.50269572998968,752.4635376244216,171.56784286499484,785,174.63299"/>
<path id="path-0-5" d="M0,423.15882C35.539418383229226,415.07103972632547,71.07883676645845,406.98325945265077,96.91358024691357,394.41976C122.74832372736869,381.8562605473492,138.87839230504977,364.81704191572203,193.82716049382714,364.49924C248.7759286826045,364.18143808427794,342.54339648247816,380.58505288446116,397.3456790123457,380.27682C452.1479615422133,379.9685871155388,467.9850588020747,362.9485065464332,494.2592592592593,352.26184C520.5334597164439,341.57517345356683,557.2447633709515,337.2219209298064,591.1728395061729,328.64621999999997C625.1009156413942,320.07051907019354,656.2457642573295,307.27236973434105,688.0864197530864,301.80353C719.9270752488433,296.334690265659,752.4635376244216,298.1951601328295,785,300.05563000000006"/>
<path id="path-0-6" d="M0,274.19581C35.539418383229226,257.85615128936223,71.07883676645845,241.51649257872438,96.91358024691357,214.52263C122.74832372736869,187.5287674212756,138.87839230504977,149.88070097446467,193.82716049382714,156.56592C248.7759286826045,163.25113902553534,342.54339648247816,214.26964352341696,397.3456790123457,221.7845C452.1479615422133,229.29935647658306,467.9850588020747,193.31056493186762,494.2592592592593,172.82377000000002C520.5334597164439,152.33697506813243,557.2447633709515,147.35217674911257,591.1728395061729,131.81475999999998C625.1009156413942,116.27734325088738,656.2457642573295,90.18730807168211,688.0864197530864,78.92597999999998C719.9270752488433,67.66465192831785,752.4635376244216,71.23203096415892,785,74.79941000000001"/>
<path id="path-0-7" d="M0,391.01111C35.539418383229226,381.08521331272186,71.07883676645845,371.1593166254437,96.91358024691357,355.55527C122.74832372736869,339.9512233745563,138.87839230504977,318.66902681094695,193.82716049382714,319.07379C248.7759286826045,319.478553189053,342.54339648247816,341.5702761307683,397.3456790123457,341.9794C452.1479615422133,342.3885238692317,467.9850588020747,321.1150486659796,494.2592592592593,308.10514C520.5334597164439,295.0952313340204,557.2447633709515,290.3488892053132,591.1728395061729,279.48781C625.1009156413942,268.62673079468686,656.2457642573295,251.6509145127677,688.0864197530864,244.4806C719.9270752488433,237.3102854872323,752.4635376244216,239.94547274361616,785,242.58066"/>
<path id="path-0-8" d="M0,366.13409C35.539418383229226,353.5633305141418,71.07883676645845,340.9925710282836,96.91358024691357,323.54644C122.74832372736869,306.10030897171646,138.87839230504977,283.7788064010076,193.82716049382714,284.63603C248.7759286826045,285.4932535989924,342.54339648247816,309.52920336768585,397.3456790123457,309.39398C452.1479615422133,309.25875663231415,467.9850588020747,284.9523601282491,494.2592592592593,269.97341C520.5334597164439,254.99445987175088,557.2447633709515,249.3429561193176,591.1728395061729,236.20702000000003C625.1009156413942,223.07108388068247,656.2457642573295,202.4507153944807,688.0864197530864,193.64078999999998C719.9270752488433,184.83086460551925,752.4635376244216,187.8313823027596,785,190.8319"/>
<path id="path-0-9" d="M0,406.02905C35.539418383229226,396.83802259475556,71.07883676645845,387.646995189511,96.91358024691357,373.29719C122.74832372736869,358.947384810489,138.87839230504977,339.4388018367113,193.82716049382714,339.62796C248.7759286826045,339.8171181632886,342.54339648247816,359.7040174636437,397.3456790123457,360.08777000000003C452.1479615422133,360.47152253635636,467.9850588020747,341.35212830871416,494.2592592592593,329.55762C520.5334597164439,317.7631116912858,557.2447633709515,313.2934893015,591.1728395061729,303.75919C625.1009156413942,294.22489069849996,656.2457642573295,279.6259144852857,688.0864197530864,273.44982C719.9270752488433,267.2737255147143,752.4635376244216,269.5205127573571,785,271.7673"/>
<path id="path-0-10" d="M0,521.02358C35.539418383229226,519.2007457895339,71.07883676645845,517.3779115790678,96.91358024691357,513.89184C122.74832372736869,510.40576842093225,138.87839230504977,505.2564594732623,193.82716049382714,502.81784000000005C248.7759286826045,500.3792205267378,342.54339648247816,500.6512905278828,397.3456790123457,498.49219000000005C452.1479615422133,496.3330894721173,467.9850588020747,491.74281841520667,494.2592592592593,488.24496C520.5334597164439,484.7471015847933,557.2447633709515,482.34165581129054,591.1728395061729,479.56307000000004C625.1009156413942,476.78448418870954,656.2457642573295,473.63275833963127,688.0864197530864,472.34900999999996C719.9270752488433,471.06526166036866,752.4635376244216,471.64949083018433,785,472.23372"/>
<path id="path-0-11" d="M0,267.3076C35.539418383229226,250.40545798465592,71.07883676645845,233.50331596931179,96.91358024691357,205.90955C122.74832372736869,178.3157840306882,138.87839230504977,140.03039410740868,193.82716049382714,146.80253C248.7759286826045,153.5746658925913,342.54339648247816,205.40432760105347,397.3456790123457,213.11737999999997C452.1479615422133,220.83043239894647,467.9850588020747,184.42687548837742,494.2592592592593,163.68723000000003C520.5334597164439,142.94758451162264,557.2447633709515,137.87185044543685,591.1728395061729,122.11794C625.1009156413942,106.36402955456315,656.2457642573295,79.93194272987517,688.0864197530864,68.53972999999999C719.9270752488433,57.147517270124816,752.4635376244216,60.79517863506241,785,64.44284000000002"/>
<path id="path-0-12" d="M0,545.94799C35.539418383229226,545.5609821229818,71.07883676645845,545.1739742459634,96.91358024691357,543.94319C122.74832372736869,542.7124057540365,138.87839230504977,540.6378451391275,193.82716049382714,539.76958C248.7759286826045,538.9013148608725,342.54339648247816,539.2393451975266,397.3456790123457,538.56075C452.1479615422133,537.8821548024733,467.9850588020747,536.186934070766,494.2592592592593,534.75737C520.5334597164439,533.327805929234,557.2447633709515,532.1638985194091,591.1728395061729,531.16532C625.1009156413942,530.1667414805908,656.2457642573295,529.3334918515974,688.0864197530864,528.98706C719.9270752488433,528.6406281484027,752.4635376244216,528.7810140742014,785,528.9214000000001"/>
<path id="path-0-13" d="M0,442.92416C35.539418383229226,436.1734178804534,71.07883676645845,429.4226757609068,96.91358024691357,419.14221999999995C122.74832372736869,408.8617642390931,138.87839230504977,395.05159483682576,193.82716049382714,393.7136C248.7759286826045,392.3756051631742,342.54339648247816,403.5097848917899,397.3456790123457,401.69780000000003C452.1479615422133,399.8858151082102,467.9850588020747,385.1276655960151,494.2592592592593,375.54993C520.5334597164439,365.97219440398493,557.2447633709515,361.5748727241498,591.1728395061729,353.78231000000005C625.1009156413942,345.9897472758503,656.2457642573295,334.8019435073857,688.0864197530864,329.92175999999995C719.9270752488433,325.0415764926142,752.4635376244216,326.4690132463071,785,327.89645"/>
<path id="path-0-14" d="M0,379.29528000000005C35.539418383229226,368.2432379732051,71.07883676645845,357.1911959464102,96.91358024691357,340.89426000000003C122.74832372736869,324.5973240535899,138.87839230504977,303.0554941875645,193.82716049382714,303.21242C248.7759286826045,303.36934581243554,342.54339648247816,325.2250273033323,397.3456790123457,324.83787C452.1479615422133,324.4507126966677,467.9850588020747,301.8207165991068,494.2592592592593,287.78925C520.5334597164439,273.7577834008932,557.2447633709515,268.32484630024044,591.1728395061729,255.95919999999998C625.1009156413942,243.59355369975955,656.2457642573295,224.29519819993132,688.0864197530864,216.09371000000002C719.9270752488433,207.8922218000687,752.4635376244216,210.78760090003436,785,213.68298000000001"/>
<path id="path-0-15" d="M0,322.02758C35.539418383229226,307.0164856120462,71.07883676645845,292.0053912240925,96.91358024691357,269.53198999999995C122.74832372736869,247.05858877590745,138.87839230504977,217.12288071567613,193.82716049382714,221.98658999999998C248.7759286826045,226.85029928432382,342.54339648247816,266.5134259132028,397.3456790123457,270.99653C452.1479615422133,275.4796340867972,467.9850588020747,244.78271563151264,494.2592592592593,227.10415C520.5334597164439,209.42558436848736,557.2447633709515,204.7653715607466,591.1728395061729,191.02040999999997C625.1009156413942,177.27544843925335,656.2457642573295,154.44573812550098,688.0864197530864,144.60362C719.9270752488433,134.76150187449903,752.4635376244216,137.9069759372495,785,141.05245000000002"/>
<path id="path-0-16" d="M0,334.27414999999996C35.539418383229226,319.9666552937134,71.07883676645845,305.6591605874269,96.91358024691357,284.38717999999994C122.74832372736869,263.11519941257296,138.87839230504977,234.87873294400555,193.82716049382714,238.94507000000002C248.7759286826045,243.01140705599448,342.54339648247816,279.38054763655106,397.3456790123457,283.11409000000003C452.1479615422133,286.847632363449,467.9850588020747,257.9455765097905,494.2592592592593,241.13579000000001C520.5334597164439,224.32600349020953,557.2447633709515,219.60848632428718,591.1728395061729,206.23014999999998C625.1009156413942,192.85181367571278,656.2457642573295,170.81265819306083,688.0864197530864,161.34496000000001C719.9270752488433,151.8772618069392,752.4635376244216,154.98102090346958,785,158.08478"/>
<path id="path-0-17" d="M0,464.9708C35.539418383229226,459.87172634031833,71.07883676645845,454.77265268063667,96.91358024691357,446.97107C122.74832372736869,439.1694873193633,138.87839230504977,428.6653956177717,193.82716049382714,425.61575000000005C248.7759286826045,422.5661043822284,342.54339648247816,426.9709048482766,397.3456790123457,423.21516999999994C452.1479615422133,419.4594351517233,467.9850588020747,407.54316498912164,494.2592592592593,399.38226999999995C520.5334597164439,391.22137501087826,557.2447633709515,386.8158551952365,591.1728395061729,379.848C625.1009156413942,372.8801448047635,656.2457642573295,363.3499542299324,688.0864197530864,359.12652999999995C719.9270752488433,354.9031057700675,752.4635376244216,355.9864478850337,785,357.06978999999995"/>
<path id="path-0-18" d="M0,311.03534C35.539418383229226,295.94003955570827,71.07883676645845,280.84473911141646,96.91358024691357,257.46623C122.74832372736869,234.08772088858353,138.87839230504977,202.4260031100423,193.82716049382714,207.65507C248.7759286826045,212.8841368899577,342.54339648247816,255.00398844841413,397.3456790123457,259.99323000000004C452.1479615422133,264.98247155158595,467.9850588020747,232.84110309630134,494.2592592592593,214.45535999999998C520.5334597164439,196.06961690369863,557.2447633709515,191.43949916638041,591.1728395061729,177.28837C625.1009156413942,163.13724083361956,656.2457642573295,139.465100238177,688.0864197530864,129.22433999999998C719.9270752488433,118.98357976182297,752.4635376244216,122.17419988091147,785,125.36481999999998"/>
<path id="path-0-19" d="M0,280.90979000000004C35.539418383229226,264.6926323874958,71.07883676645845,248.47547477499143,96.91358024691357,222.19526C122.74832372736869,195.91504522500856,138.87839230504977,159.57177328753008,193.82716049382714,166.42114999999998C248.7759286826045,173.2705267124699,342.54339648247816,223.31255207488832,397.3456790123457,230.63116999999997C452.1479615422133,237.94978792511162,467.9850588020747,202.54499841291656,494.2592592592593,182.38185000000001C520.5334597164439,162.21870158708347,557.2447633709515,157.29719427344554,591.1728395061729,142.22355C625.1009156413942,127.14990572655445,656.2457642573295,101.9241244933013,688.0864197530864,90.99531000000002C719.9270752488433,80.06649550669873,752.4635376244216,83.43464775334935,785,86.80279999999998"/>
</defs>
<g id="legend" transform="translate(865,20)">
<g transform="translate(5,0)">
<g class="legendColor" transform="translate(0,0)">
<g class="legendCells" transform="translate(0,16)">
<g class="cell" transform="translate(0, 0)">
<rect class="swatch" height="15" width="15" style="fill: rgb(94, 79, 162); --darkreader-inline-fill: var(--darkreader-text-5e4fa2, #796bb7);" data-darkreader-inline-fill=""/>
<text class="label" transform="translate( 20, 12.5)" font-family="&quot;Arial&quot;, sans-serif" font-size="10px">
<tspan x="0" dy="0em">Aveiro</tspan>
</text>
</g>
<g class="cell" transform="translate(0, 21)">
<rect class="swatch" height="15" width="15" style="fill: rgb(73, 109, 175); --darkreader-inline-fill: var(--darkreader-text-496daf, #729bc4);" data-darkreader-inline-fill=""/>
<text class="label" transform="translate( 20, 12.5)" font-family="&quot;Arial&quot;, sans-serif" font-size="10px">
<tspan x="0" dy="0em">Açores</tspan>
</text>
</g>
<g class="cell" transform="translate(0, 42)">
<rect class="swatch" height="15" width="15" style="fill: rgb(66, 139, 181); --darkreader-inline-fill: var(--darkreader-text-428bb5, #5b9dc3);" data-darkreader-inline-fill=""/>
<text class="label" transform="translate( 20, 12.5)" font-family="&quot;Arial&quot;, sans-serif" font-size="10px">
<tspan x="0" dy="0em">Beja</tspan>
</text>
</g>
<g class="cell" transform="translate(0, 63)">
<rect class="swatch" height="15" width="15" style="fill: rgb(82, 169, 175); --darkreader-inline-fill: var(--darkreader-text-52a9af, #63b1b7);" data-darkreader-inline-fill=""/>
<text class="label" transform="translate( 20, 12.5)" font-family="&quot;Arial&quot;, sans-serif" font-size="10px">
<tspan x="0" dy="0em">Braga</tspan>
</text>
</g>
<g class="cell" transform="translate(0, 84)">
<rect class="swatch" height="15" width="15" style="fill: rgb(111, 193, 168); --darkreader-inline-fill: var(--darkreader-text-6fc1a8, #77c4ad);" data-darkreader-inline-fill=""/>
<text class="label" transform="translate( 20, 12.5)" font-family="&quot;Arial&quot;, sans-serif" font-size="10px">
<tspan x="0" dy="0em">Bragança</tspan>
</text>
</g>
<g class="cell" transform="translate(0, 105)">
<rect class="swatch" height="15" width="15" style="fill: rgb(145, 211, 164); --darkreader-inline-fill: var(--darkreader-text-91d3a4, #8ed2a1);" data-darkreader-inline-fill=""/>
<text class="label" transform="translate( 20, 12.5)" font-family="&quot;Arial&quot;, sans-serif" font-size="10px">
<tspan x="0" dy="0em">Castelo Branco</tspan>
</text>
</g>
<g class="cell" transform="translate(0, 126)">
<rect class="swatch" height="15" width="15" style="fill: rgb(179, 224, 161); --darkreader-inline-fill: var(--darkreader-text-b3e0a1, #abdd97);" data-darkreader-inline-fill=""/>
<text class="label" transform="translate( 20, 12.5)" font-family="&quot;Arial&quot;, sans-serif" font-size="10px">
<tspan x="0" dy="0em">Coimbra</tspan>
</text>
</g>
<g class="cell" transform="translate(0, 147)">
<rect class="swatch" height="15" width="15" style="fill: rgb(210, 237, 158); --darkreader-inline-fill: var(--darkreader-text-d2ed9e, #ccea90);" data-darkreader-inline-fill=""/>
<text class="label" transform="translate( 20, 12.5)" font-family="&quot;Arial&quot;, sans-serif" font-size="10px">
<tspan x="0" dy="0em">Faro</tspan>
</text>
</g>
<g class="cell" transform="translate(0, 168)">
<rect class="swatch" height="15" width="15" style="fill: rgb(232, 246, 164); --darkreader-inline-fill: var(--darkreader-text-e8f6a4, #e3f491);" data-darkreader-inline-fill=""/>
<text class="label" transform="translate( 20, 12.5)" font-family="&quot;Arial&quot;, sans-serif" font-size="10px">
<tspan x="0" dy="0em">Guarda</tspan>
</text>
</g>
<g class="cell" transform="translate(0, 189)">
<rect class="swatch" height="15" width="15" style="fill: rgb(247, 250, 175); --darkreader-inline-fill: var(--darkreader-text-f7faaf, #f5f897);" data-darkreader-inline-fill=""/>
<text class="label" transform="translate( 20, 12.5)" font-family="&quot;Arial&quot;, sans-serif" font-size="10px">
<tspan x="0" dy="0em">Leiria</tspan>
</text>
</g>
<g class="cell" transform="translate(0, 210)">
<rect class="swatch" height="15" width="15" style="fill: rgb(253, 244, 171); --darkreader-inline-fill: var(--darkreader-text-fdf4ab, #fcf192);" data-darkreader-inline-fill=""/>
<text class="label" transform="translate( 20, 12.5)" font-family="&quot;Arial&quot;, sans-serif" font-size="10px">
<tspan x="0" dy="0em">Lisboa</tspan>
</text>
</g>
<g class="cell" transform="translate(0, 231)">
<rect class="swatch" height="15" width="15" style="fill: rgb(254, 229, 151); --darkreader-inline-fill: var(--darkreader-text-fee597, #fee084);" data-darkreader-inline-fill=""/>
<text class="label" transform="translate( 20, 12.5)" font-family="&quot;Arial&quot;, sans-serif" font-size="10px">
<tspan x="0" dy="0em">Madeira</tspan>
</text>
</g>
<g class="cell" transform="translate(0, 252)">
<rect class="swatch" height="15" width="15" style="fill: rgb(254, 207, 126); --darkreader-inline-fill: var(--darkreader-text-fecf7e, #fecb72);" data-darkreader-inline-fill=""/>
<text class="label" transform="translate( 20, 12.5)" font-family="&quot;Arial&quot;, sans-serif" font-size="10px">
<tspan x="0" dy="0em">Portalegre</tspan>
</text>
</g>
<g class="cell" transform="translate(0, 273)">
<rect class="swatch" height="15" width="15" style="fill: rgb(252, 180, 105); --darkreader-inline-fill: var(--darkreader-text-fcb469, #fcb264);" data-darkreader-inline-fill=""/>
<text class="label" transform="translate( 20, 12.5)" font-family="&quot;Arial&quot;, sans-serif" font-size="10px">
<tspan x="0" dy="0em">Porto</tspan>
</text>
</g>
<g class="cell" transform="translate(0, 294)">
<rect class="swatch" height="15" width="15" style="fill: rgb(249, 150, 87); --darkreader-inline-fill: var(--darkreader-text-f99657, #f99758);" data-darkreader-inline-fill=""/>
<text class="label" transform="translate( 20, 12.5)" font-family="&quot;Arial&quot;, sans-serif" font-size="10px">
<tspan x="0" dy="0em">Santarém</tspan>
</text>
</g>
<g class="cell" transform="translate(0, 315)">
<rect class="swatch" height="15" width="15" style="fill: rgb(242, 118, 75); --darkreader-inline-fill: var(--darkreader-text-f2764b, #f27b51);" data-darkreader-inline-fill=""/>
<text class="label" transform="translate( 20, 12.5)" font-family="&quot;Arial&quot;, sans-serif" font-size="10px">
<tspan x="0" dy="0em">Setúbal</tspan>
</text>
</g>
<g class="cell" transform="translate(0, 336)">
<rect class="swatch" height="15" width="15" style="fill: rgb(230, 90, 73); --darkreader-inline-fill: var(--darkreader-text-e65a49, #e76353);" data-darkreader-inline-fill=""/>
<text class="label" transform="translate( 20, 12.5)" font-family="&quot;Arial&quot;, sans-serif" font-size="10px">
<tspan x="0" dy="0em">Viana do Castelo</tspan>
</text>
</g>
<g class="cell" transform="translate(0, 357)">
<rect class="swatch" height="15" width="15" style="fill: rgb(211, 62, 75); --darkreader-inline-fill: var(--darkreader-text-d33e4b, #d74e5a);" data-darkreader-inline-fill=""/>
<text class="label" transform="translate( 20, 12.5)" font-family="&quot;Arial&quot;, sans-serif" font-size="10px">
<tspan x="0" dy="0em">Vila Real</tspan>
</text>
</g>
<g class="cell" transform="translate(0, 378)">
<rect class="swatch" height="15" width="15" style="fill: rgb(186, 33, 72); --darkreader-inline-fill: var(--darkreader-text-ba2148, #e05176);" data-darkreader-inline-fill=""/>
<text class="label" transform="translate( 20, 12.5)" font-family="&quot;Arial&quot;, sans-serif" font-size="10px">
<tspan x="0" dy="0em">Viseu</tspan>
</text>
</g>
<g class="cell" transform="translate(0, 399)">
<rect class="swatch" height="15" width="15" style="fill: rgb(158, 1, 66); --darkreader-inline-fill: var(--darkreader-text-9e0142, #fe5ea0);" data-darkreader-inline-fill=""/>
<text class="label" transform="translate( 20, 12.5)" font-family="&quot;Arial&quot;, sans-serif" font-size="10px">
<tspan x="0" dy="0em">Évora</tspan>
</text>
</g>
</g>
<text class="legendTitle" font-family="&quot;Arial&quot;, sans-serif" font-size="12px" font-weight="bold">
<tspan x="0" dy="0em">Cores</tspan>
</text>
</g>
</g>
</g>
</svg>


